<svg xmlns="http://www.w3.org/2000/svg" xmlns:xlink="http://www.w3.org/1999/xlink" version="1.1" id="Your_Icon" x="0px" y="0px" width="100px" height="100px" viewBox="0 0 100 100" enable-background="new 0 0 100 100" xml:space="preserve">
<g>
	<g>
		<path fill="#000000" d="M50,87.846h-4.569c-0.943,0-1.709-0.766-1.709-1.709c0-3.881-6.552-3.984-6.618-3.985    c-0.074,0-0.147-0.006-0.22-0.017l-35.41-4.912C0.629,77.105,0,76.384,0,75.53V19.146c0-0.944,0.765-1.708,1.709-1.708    c0.943,0,1.708,0.765,1.708,1.708v54.895l33.831,4.695c3.112,0.057,8.547,1.35,9.68,5.693H50c0.942,0,1.709,0.765,1.709,1.707    C51.709,87.08,50.942,87.846,50,87.846L50,87.846z"/>
	</g>
	<g>
		<path fill="#000000" d="M54.569,87.846H50c-0.942,0-1.709-0.766-1.709-1.709c0-0.942,0.767-1.707,1.709-1.707h3.072    c1.133-4.344,6.567-5.637,9.68-5.693l33.831-4.695V19.146c0-0.944,0.765-1.708,1.708-1.708c0.944,0,1.709,0.765,1.709,1.708V75.53    c0,0.854-0.629,1.575-1.474,1.692l-35.41,4.912c-0.072,0.011-0.146,0.017-0.22,0.017c-0.062,0.001-6.618,0.13-6.618,3.985    C56.278,87.08,55.513,87.846,54.569,87.846L54.569,87.846z"/>
	</g>
	<g>
		<g>
			<path fill="#000000" d="M94.136,12.724c-0.378-0.325-0.879-0.468-1.373-0.393l-32.077,4.92c-4.682,0.837-7.59,2.209-9.404,3.61     v62.287c0.263-0.301,0.428-0.689,0.428-1.119c0-4.224,4.433-5.267,4.804-5.346l36.779-5.874c0.83-0.132,1.439-0.847,1.439-1.687     V14.021C94.731,13.522,94.514,13.049,94.136,12.724z"/>
		</g>
		<g>
			<path fill="#000000" d="M48.719,20.867c-1.818-1.405-4.74-2.781-9.446-3.624L7.237,12.332c-0.494-0.076-0.995,0.067-1.373,0.393     c-0.378,0.325-0.596,0.798-0.596,1.296v55.103c0,0.84,0.609,1.555,1.439,1.687l36.777,5.872c0.409,0.089,4.806,1.142,4.806,5.348     c0,0.43,0.165,0.818,0.428,1.119V20.867z"/>
		</g>
	</g>
</g>
</svg>