<?xml version="1.0" encoding="UTF-8" standalone="no"?>
<!-- Generator: Adobe Illustrator 15.1.0, SVG Export Plug-In . SVG Version: 6.00 Build 0)  -->

<svg
   xmlns:dc="http://purl.org/dc/elements/1.1/"
   xmlns:cc="http://creativecommons.org/ns#"
   xmlns:rdf="http://www.w3.org/1999/02/22-rdf-syntax-ns#"
   xmlns:svg="http://www.w3.org/2000/svg"
   xmlns="http://www.w3.org/2000/svg"
   xmlns:sodipodi="http://sodipodi.sourceforge.net/DTD/sodipodi-0.dtd"
   xmlns:inkscape="http://www.inkscape.org/namespaces/inkscape"
   version="1.1"
   id="Layer_1"
   x="0px"
   y="0px"
   width="75.433px"
   height="100px"
   viewBox="0 0 75.433 100"
   enable-background="new 0 0 75.433 100"
   xml:space="preserve"
   inkscape:version="0.48.4 r9939"
   sodipodi:docname="neutral.svg"><metadata
     id="metadata11"><rdf:RDF><cc:Work
         rdf:about=""><dc:format>image/svg+xml</dc:format><dc:type
           rdf:resource="http://purl.org/dc/dcmitype/StillImage" /><dc:title></dc:title></cc:Work></rdf:RDF></metadata><defs
     id="defs9" /><sodipodi:namedview
     pagecolor="#ffffff"
     bordercolor="#666666"
     borderopacity="1"
     objecttolerance="10"
     gridtolerance="10"
     guidetolerance="10"
     inkscape:pageopacity="0"
     inkscape:pageshadow="2"
     inkscape:window-width="1700"
     inkscape:window-height="1273"
     id="namedview7"
     showgrid="false"
     inkscape:zoom="8.0269543"
     inkscape:cx="42.229938"
     inkscape:cy="45.789549"
     inkscape:window-x="861"
     inkscape:window-y="177"
     inkscape:window-maximized="0"
     inkscape:current-layer="Layer_1" /><path
     d="M8.431,8.148"
     id="path3"
     fill="#010101" /><path
     style="fill:#909090;fill-opacity:1"
     d="M 9.71875 0 C 7.75475 0 4.94275 1.077 3.46875 2.375 L 2.6875 3.0625 C 1.2125 4.3625 0 7.036 0 9 L 0 11.71875 L 0 12.3125 L 0 96.4375 C 0 98.4015 1.5985 100 3.5625 100 L 65.71875 100 C 67.68575 100 69.28125 98.4015 69.28125 96.4375 L 69.28125 11.71875 C 69.28125 9.75375 67.68575 8.15625 65.71875 8.15625 L 24.1875 8.15625 C 17.590965 8.183625 12.948798 8.19083 8.4375 8.15625 L 3.5625 8.15625 C 3.5365 8.15625 3.526 8.15425 3.5 8.15625 L 7.34375 3.75 L 18.8125 3.75 L 71.8125 3.75 L 71.8125 93.03125 L 71.875 93.03125 C 73.838 93.03125 75.4375 91.43275 75.4375 89.46875 L 75.4375 3.5625 C 75.4385 1.5965 73.839 -2.9605947e-16 71.875 0 L 22.375 0 L 15.25 0 L 9.71875 0 z M 12.375 41.09375 L 58.125 41.09375 L 58.125 48.25 L 12.375 48.25 L 12.375 41.09375 z M 25.875 52.53125 L 42.875 52.53125 L 42.875 58.71875 L 25.875 58.71875 L 25.875 52.53125 z M 12.21875 62.4375 L 57.96875 62.4375 L 57.96875 69.59375 L 12.21875 69.59375 L 12.21875 62.4375 z "
     id="path5" /></svg>