<?xml version="1.0" encoding="utf-8"?>
<!-- Generator: Adobe Illustrator 15.1.0, SVG Export Plug-In . SVG Version: 6.00 Build 0)  -->
<!DOCTYPE svg PUBLIC "-//W3C//DTD SVG 1.1//EN" "http://www.w3.org/Graphics/SVG/1.1/DTD/svg11.dtd">
<svg version="1.1" id="Layer_1" xmlns="http://www.w3.org/2000/svg" xmlns:xlink="http://www.w3.org/1999/xlink" x="0px" y="0px"
	 width="75.433px" height="100px" viewBox="0 0 75.433 100" enable-background="new 0 0 75.433 100" xml:space="preserve">
<path fill="#010101" d="M8.431,8.148"/>
<path fill="#010101" d="M71.862,0H22.39c-1.965,0-5.181,0-7.145,0h-5.52C7.761,0,4.947,1.064,3.473,2.362L2.681,3.06
	C1.206,4.36,0,7.031,0,8.995v2.727v0.593v84.113C0,98.392,1.608,100,3.572,100h62.132c1.967,0,3.572-1.608,3.572-3.572V11.722
	c0-1.965-1.605-3.572-3.572-3.572H24.172c0-1.301-1.055-2.355-2.353-2.355s-2.35,1.054-2.35,2.355v0.923v23.594l-5.917-5.777
	l-5.12,5.777V8.148h-4.86c-0.026,0-0.049,0.006-0.075,0.008L7.34,3.755h11.475h52.988V93.04h0.057c1.963,0,3.573-1.608,3.573-3.572
	V3.573C75.434,1.607,73.826,0,71.862,0z"/>
</svg>
