<?xml version="1.0" encoding="UTF-8" standalone="no"?>
<!-- Generator: Adobe Illustrator 15.1.0, SVG Export Plug-In . SVG Version: 6.00 Build 0)  -->
<svg id="Layer_1" xmlns:rdf="http://www.w3.org/1999/02/22-rdf-syntax-ns#" xmlns="http://www.w3.org/2000/svg" enable-background="new 0 0 75.433 100" xml:space="preserve" viewBox="0 0 75.433 100" version="1.1" y="0px" x="0px" xmlns:cc="http://creativecommons.org/ns#" xmlns:dc="http://purl.org/dc/elements/1.1/"><metadata id="metadata11"><rdf:RDF><cc:Work rdf:about=""><dc:format>image/svg+xml</dc:format><dc:type rdf:resource="http://purl.org/dc/dcmitype/StillImage"/><dc:title/></cc:Work></rdf:RDF></metadata><path id="path3" fill="#010101" d="M67.006,8.148"/><path id="path5" fill="#258d70" d="m65.719,0c1.964,0,4.776,1.077,6.25,2.375l0.781,0.6875c1.475,1.3,2.6875,3.9735,2.6875,5.9375v2.7188,0.59375,84.125c0,1.964-1.5985,3.5625-3.5625,3.5625h-62.156c-1.967,0-3.5625-1.5985-3.5625-3.5625v-84.719c0-1.965,1.5955-3.5625,3.5625-3.5625h41.531c6.5965,0.027375,11.239,0.03458,15.75,0h4.875c0.026,0,0.0365-0.002,0.0625,0l-3.844-4.4065h-11.469-53v89.281h-0.0625c-1.963,0-3.5625-1.5985-3.5625-3.5625v-85.906c-0.00099953-1.9655,1.5985-3.562,3.5625-3.562h49.5,7.125z"/></svg>
