<?xml version="1.0" encoding="UTF-8" standalone="no"?>
<svg
   xmlns:dc="http://purl.org/dc/elements/1.1/"
   xmlns:cc="http://creativecommons.org/ns#"
   xmlns:rdf="http://www.w3.org/1999/02/22-rdf-syntax-ns#"
   xmlns:svg="http://www.w3.org/2000/svg"
   xmlns="http://www.w3.org/2000/svg"
   xmlns:sodipodi="http://sodipodi.sourceforge.net/DTD/sodipodi-0.dtd"
   xmlns:inkscape="http://www.inkscape.org/namespaces/inkscape"
   version="1.1"
   id="Your_Icon"
   x="0px"
   y="0px"
   width="100px"
   height="100px"
   viewBox="0 0 100 100"
   enable-background="new 0 0 100 100"
   xml:space="preserve"
   inkscape:version="0.48.4 r9939"
   sodipodi:docname="reading.svg"><metadata
     id="metadata27"><rdf:RDF><cc:Work
         rdf:about=""><dc:format>image/svg+xml</dc:format><dc:type
           rdf:resource="http://purl.org/dc/dcmitype/StillImage" /><dc:title></dc:title></cc:Work></rdf:RDF></metadata><defs
     id="defs25" /><sodipodi:namedview
     pagecolor="#ffffff"
     bordercolor="#666666"
     borderopacity="1"
     objecttolerance="10"
     gridtolerance="10"
     guidetolerance="10"
     inkscape:pageopacity="0"
     inkscape:pageshadow="2"
     inkscape:window-width="1929"
     inkscape:window-height="1362"
     id="namedview23"
     showgrid="false"
     inkscape:zoom="10.074438"
     inkscape:cx="39.361528"
     inkscape:cy="51.824835"
     inkscape:window-x="174"
     inkscape:window-y="131"
     inkscape:window-maximized="0"
     inkscape:current-layer="Your_Icon" /><g
     id="g5"
     style="fill:#258d70;fill-opacity:1"><path
       style="fill:#258d70;fill-opacity:1"
       inkscape:connector-curvature="0"
       id="path7"
       d="m 50,87.846 h -4.569 c -0.943,0 -1.709,-0.766 -1.709,-1.709 0,-3.881 -6.552,-3.984 -6.618,-3.985 -0.074,0 -0.147,-0.006 -0.22,-0.017 L 1.474,77.223 C 0.629,77.105 0,76.384 0,75.53 V 19.146 c 0,-0.944 0.765,-1.708 1.709,-1.708 0.943,0 1.708,0.765 1.708,1.708 v 54.895 l 33.831,4.695 c 3.112,0.057 8.547,1.35 9.68,5.693 H 50 c 0.942,0 1.709,0.765 1.709,1.707 0,0.944 -0.767,1.71 -1.709,1.71 l 0,0 z" /></g><g
     id="g9"
     style="fill:#258d70;fill-opacity:1"><path
       style="fill:#258d70;fill-opacity:1"
       inkscape:connector-curvature="0"
       id="path11"
       d="M 54.569,87.846 H 50 c -0.942,0 -1.709,-0.766 -1.709,-1.709 0,-0.942 0.767,-1.707 1.709,-1.707 h 3.072 c 1.133,-4.344 6.567,-5.637 9.68,-5.693 L 96.583,74.042 V 19.146 c 0,-0.944 0.765,-1.708 1.708,-1.708 0.944,0 1.709,0.765 1.709,1.708 V 75.53 c 0,0.854 -0.629,1.575 -1.474,1.692 l -35.41,4.912 c -0.072,0.011 -0.146,0.017 -0.22,0.017 -0.062,0.001 -6.618,0.13 -6.618,3.985 0,0.944 -0.765,1.71 -1.709,1.71 l 0,0 z" /></g><g
     id="g13"
     style="fill:#258d70;fill-opacity:1"><g
       id="g15"
       style="fill:#258d70;fill-opacity:1"><path
         style="fill:#258d70;fill-opacity:1"
         inkscape:connector-curvature="0"
         id="path17"
         d="m 94.136,12.724 c -0.378,-0.325 -0.879,-0.468 -1.373,-0.393 l -32.077,4.92 c -4.682,0.837 -7.59,2.209 -9.404,3.61 v 62.287 c 0.263,-0.301 0.428,-0.689 0.428,-1.119 0,-4.224 4.433,-5.267 4.804,-5.346 l 36.779,-5.874 c 0.83,-0.132 1.439,-0.847 1.439,-1.687 V 14.021 c -0.001,-0.499 -0.218,-0.972 -0.596,-1.297 z" /></g><g
       id="g19"
       style="fill:#258d70;fill-opacity:1"><path
         style="fill:#258d70;fill-opacity:1"
         inkscape:connector-curvature="0"
         id="path21"
         d="m 48.719,20.867 c -1.818,-1.405 -4.74,-2.781 -9.446,-3.624 L 7.237,12.332 C 6.743,12.256 6.242,12.399 5.864,12.725 5.486,13.05 5.268,13.523 5.268,14.021 v 55.103 c 0,0.84 0.609,1.555 1.439,1.687 l 36.777,5.872 c 0.409,0.089 4.806,1.142 4.806,5.348 0,0.43 0.165,0.818 0.428,1.119 V 20.867 z" /></g></g></svg>