<?xml version="1.0" encoding="UTF-8" standalone="no"?>
<!-- Generator: Adobe Illustrator 15.1.0, SVG Export Plug-In . SVG Version: 6.00 Build 0)  -->
<svg id="Layer_1" xmlns:rdf="http://www.w3.org/1999/02/22-rdf-syntax-ns#" xmlns="http://www.w3.org/2000/svg" enable-background="new 0 0 75.433 100" xml:space="preserve" viewBox="0 0 75.433 100" version="1.1" y="0px" x="0px" xmlns:cc="http://creativecommons.org/ns#" xmlns:dc="http://purl.org/dc/elements/1.1/"><metadata id="metadata11"><rdf:RDF><cc:Work rdf:about=""><dc:format>image/svg+xml</dc:format><dc:type rdf:resource="http://purl.org/dc/dcmitype/StillImage"/><dc:title/></cc:Work></rdf:RDF></metadata><path id="path3" d="M8.431,8.148" fill="#010101"/><path id="path5" fill="#258d70" d="M9.7188,0c-1.964,0-4.776,1.077-6.25,2.375l-0.7813,0.6875c-1.475,1.3-2.6875,3.9735-2.6875,5.9375v2.719,0.593,84.126c0,1.964,1.5985,3.562,3.5625,3.562h62.156c1.967,0,3.562-1.598,3.562-3.562v-84.719c0-1.9652-1.595-3.5628-3.562-3.5628h-41.531c-6.597,0.0274-11.239,0.0346-15.75,0h-4.875c-0.026,0-0.0365-0.002-0.0625,0l3.8438-4.4062h11.468,53v89.281h0.063c1.963,0,3.563-1.598,3.563-3.562v-85.906c0-1.966-1.599-3.5625-3.563-3.5625h-49.5-7.125-5.5312zm2.6562,41.094h45.75v7.156h-45.75v-7.156zm13.5,11.437h17v6.188h-17v-6.188zm-13.656,9.907h45.75v7.156h-45.75v-7.156z"/></svg>
