<?xml version="1.0" encoding="UTF-8" standalone="no"?>
<!-- Created with Inkscape (http://www.inkscape.org/) -->

<svg
   xmlns:dc="http://purl.org/dc/elements/1.1/"
   xmlns:cc="http://creativecommons.org/ns#"
   xmlns:rdf="http://www.w3.org/1999/02/22-rdf-syntax-ns#"
   xmlns:svg="http://www.w3.org/2000/svg"
   xmlns="http://www.w3.org/2000/svg"
   xmlns:xlink="http://www.w3.org/1999/xlink"
   xmlns:sodipodi="http://sodipodi.sourceforge.net/DTD/sodipodi-0.dtd"
   xmlns:inkscape="http://www.inkscape.org/namespaces/inkscape"
   width="32"
   height="32"
   viewBox="0 0 31.999999 31.999998"
   id="svg2"
   version="1.1"
   inkscape:version="0.91 r13725"
   sodipodi:docname="icon.svg">
  <defs
     id="defs4">
    <style
       id="style3340"
       type="text/css"><![CDATA[
    .outline { stroke:none; stroke-width:0 }
  ]]></style>
    <g
       id="heart">
      <path
         id="path3343"
         d="M0 200 v-200 h200      a100,100 90 0,1 0,200     a100,100 90 0,1 -200,0     z" />
    </g>
    <filter
       style="color-interpolation-filters:sRGB;"
       inkscape:label="Blur"
       id="filter4560">
      <feGaussianBlur
         stdDeviation="0.3 0.3"
         result="blur"
         id="feGaussianBlur4562" />
    </filter>
    <filter
       style="color-interpolation-filters:sRGB"
       inkscape:label="Blur"
       id="filter4560-7">
      <feGaussianBlur
         stdDeviation="0.3 0.3"
         result="blur"
         id="feGaussianBlur4562-6" />
    </filter>
  </defs>
  <sodipodi:namedview
     id="base"
     pagecolor="#ffffff"
     bordercolor="#666666"
     borderopacity="1.0"
     inkscape:pageopacity="0.0"
     inkscape:pageshadow="2"
     inkscape:zoom="9.8690158"
     inkscape:cx="24.016799"
     inkscape:cy="4.7582652"
     inkscape:document-units="px"
     inkscape:current-layer="g4610"
     showgrid="false"
     units="px"
     inkscape:window-width="1678"
     inkscape:window-height="1377"
     inkscape:window-x="81"
     inkscape:window-y="24"
     inkscape:window-maximized="0" />
  <metadata
     id="metadata7">
    <rdf:RDF>
      <cc:Work
         rdf:about="">
        <dc:format>image/svg+xml</dc:format>
        <dc:type
           rdf:resource="http://purl.org/dc/dcmitype/StillImage" />
        <dc:title></dc:title>
      </cc:Work>
    </rdf:RDF>
  </metadata>
  <g
     inkscape:label="Layer 1"
     inkscape:groupmode="layer"
     id="layer1"
     transform="translate(0,-1020.3622)">
    <rect
       style="fill:#e64f48;fill-opacity:1;stroke:none;stroke-width:2.66000009;stroke-miterlimit:4;stroke-dasharray:none;stroke-opacity:1"
       id="rect4620"
       width="32.526039"
       height="32.424713"
       x="-0.30398226"
       y="1020.3428" />
    <text
       xml:space="preserve"
       style="font-style:normal;font-weight:normal;font-size:40px;line-height:125%;font-family:sans-serif;letter-spacing:0px;word-spacing:0px;fill:#ffffff;fill-opacity:1;stroke:none;stroke-width:1px;stroke-linecap:butt;stroke-linejoin:miter;stroke-opacity:1"
       x="-7.6430941"
       y="1051.1086"
       id="text4159"
       sodipodi:linespacing="125%"><tspan
         sodipodi:role="line"
         id="tspan4161"
         x="-7.6430941"
         y="1051.1086" /></text>
    <text
       xml:space="preserve"
       style="font-style:normal;font-weight:normal;font-size:40px;line-height:125%;font-family:sans-serif;letter-spacing:0px;word-spacing:0px;fill:#000000;fill-opacity:1;stroke:none;stroke-width:1px;stroke-linecap:butt;stroke-linejoin:miter;stroke-opacity:1"
       x="-3.5478375"
       y="1038.5918"
       id="text4163"
       sodipodi:linespacing="125%"><tspan
         sodipodi:role="line"
         id="tspan4165"
         x="-3.5478375"
         y="1038.5918" /></text>
    <use
       id="use3347-8"
       transform="matrix(-0.06574785,-0.06574785,0.06574785,-0.06574785,111.174,1051.6739)"
       class="outline "
       xlink:href="#heart"
       style="fill:#e64f48;fill-opacity:1;stroke:none;stroke-width:0"
       x="0"
       y="0"
       width="100%"
       height="100%" />
    <g
       transform="translate(95.514589,1.163601)"
       style="font-style:normal;font-weight:normal;font-size:26.3066864px;line-height:125%;font-family:sans-serif;letter-spacing:0px;word-spacing:0px;fill:#000000;fill-opacity:1;stroke:none;stroke-width:1px;stroke-linecap:butt;stroke-linejoin:miter;stroke-opacity:1;filter:url(#filter4560-7)"
       id="text4167-0-9">
      <path
         inkscape:connector-curvature="0"
         d="m 15.51218,1030.7196 q 0,0 0,3.9177 1.387266,-0.039 1.387266,-3.3268 0,-3.2884 -1.078985,-3.4168 -0.308281,0.6679 -0.308281,2.8259 z m -0.166986,11.3293 0.02569,0.1285 0,1.1817 q 0.886309,-0.2055 1.323041,-1.0404 0.449577,-0.8478 0.449577,-1.5671 0,-0.7322 -0.02569,-1.1561 -0.01285,-0.4239 -0.115606,-1.0404 -0.10276,-0.6166 -0.256901,-1.079 -0.385352,-1.1304 -1.19459,-1.2974 -0.115606,1.6956 -0.115606,3.982 l -0.08992,1.8882 z m -1.11752,-12.678 -0.141296,-1.3616 0,-0.1413 q 0,-0.5524 0.166986,-0.8735 0.179831,-0.3211 0.886309,-0.3211 0.719323,0 1.400111,0.3725 0.680788,0.3725 1.078985,1.0276 0.783549,1.2845 0.783549,2.9287 0,1.6441 -0.244056,2.6075 -0.244056,0.9506 -0.822084,1.7726 1.027605,0.9891 1.181746,3.2498 0.02569,0.5138 0.02569,1.2332 0.01284,0.7193 -0.115606,1.4129 -0.12845,0.6937 -0.423887,1.3231 -0.308281,0.6294 -0.745013,1.0918 -0.96338,1.0019 -2.581857,1.0019 -0.552338,0 -0.706479,-0.4881 -0.10276,-0.3725 -0.115605,-0.8992 l 0.256901,-5.6004 0.115606,-8.3364 z"
         style="font-style:normal;font-variant:normal;font-weight:bold;font-stretch:condensed;font-size:26.30668259px;line-height:125%;font-family:Amatic;-inkscape-font-specification:'Amatic, Bold Condensed';text-align:start;writing-mode:lr-tb;text-anchor:start;fill:#000000;fill-opacity:1"
         id="path4448-4-0" />
    </g>
    <g
       transform="translate(95.178034,0.96200097)"
       style="font-style:normal;font-weight:normal;font-size:26.3066864px;line-height:125%;font-family:sans-serif;letter-spacing:0px;word-spacing:0px;fill:#ffffff;fill-opacity:1;stroke:none;stroke-width:1px;stroke-linecap:butt;stroke-linejoin:miter;stroke-opacity:1"
       id="text4167-6">
      <path
         inkscape:connector-curvature="0"
         d="m 15.51218,1030.7196 q 0,0 0,3.9177 1.387266,-0.039 1.387266,-3.3268 0,-3.2884 -1.078985,-3.4168 -0.308281,0.6679 -0.308281,2.8259 z m -0.166986,11.3293 0.02569,0.1285 0,1.1817 q 0.886309,-0.2055 1.323041,-1.0404 0.449577,-0.8478 0.449577,-1.5671 0,-0.7322 -0.02569,-1.1561 -0.01285,-0.4239 -0.115606,-1.0404 -0.10276,-0.6166 -0.256901,-1.079 -0.385352,-1.1304 -1.19459,-1.2974 -0.115606,1.6956 -0.115606,3.982 l -0.08992,1.8882 z m -1.11752,-12.678 -0.141296,-1.3616 0,-0.1413 q 0,-0.5524 0.166986,-0.8735 0.179831,-0.3211 0.886309,-0.3211 0.719323,0 1.400111,0.3725 0.680788,0.3725 1.078985,1.0276 0.783549,1.2845 0.783549,2.9287 0,1.6441 -0.244056,2.6075 -0.244056,0.9506 -0.822084,1.7726 1.027605,0.9891 1.181746,3.2498 0.02569,0.5138 0.02569,1.2332 0.01284,0.7193 -0.115606,1.4129 -0.12845,0.6937 -0.423887,1.3231 -0.308281,0.6294 -0.745013,1.0918 -0.96338,1.0019 -2.581857,1.0019 -0.552338,0 -0.706479,-0.4881 -0.10276,-0.3725 -0.115605,-0.8992 l 0.256901,-5.6004 0.115606,-8.3364 z"
         style="font-style:normal;font-variant:normal;font-weight:bold;font-stretch:condensed;font-size:26.30668259px;line-height:125%;font-family:Amatic;-inkscape-font-specification:'Amatic, Bold Condensed';text-align:start;writing-mode:lr-tb;text-anchor:start;fill:#ffffff;fill-opacity:1"
         id="path4448-8" />
    </g>
    <g
       id="g4610"
       transform="matrix(0.22344095,0,0,0.22344095,5.1371782,1030.962)">
      <path
         style="fill:#ffffff;fill-opacity:1"
         id="path6"
         d="M 32.411005,40.256932 C 23.455362,36.613055 18.90457,36.21809 14.086221,35.799959 9.3362093,35.389936 4.4182503,34.95559 -4.8883452,31.224844 c -0.6914794,1.043589 -1.2625001,3.070539 -1.7223281,5.527202 9.5683606,2.493728 14.4121916,2.302615 19.0846003,2.109186 4.726847,-0.194587 9.611217,-0.394965 19.166837,2.139301 3.233853,0.858268 5.751904,1.702638 7.75453,2.520367 -1.779082,-0.98336 -4.043475,-2.067489 -6.984289,-3.263968 z"
         inkscape:connector-curvature="0" />
      <path
         style="fill:#ffffff;fill-opacity:1"
         id="path8"
         d="m 31.273596,43.539432 c -9.344817,-2.479828 -13.90835,-2.293349 -18.742914,-2.094128 -4.7604367,0.196903 -9.6911367,0.391491 -19.3880641,-2.125402 -0.3127294,1.915757 -0.5652294,3.990195 -0.7656078,5.992822 9.4594849,1.122351 14.1492672,0.310413 18.6734189,-0.481835 4.657351,-0.814255 9.473384,-1.656308 19.281504,-0.403074 3.836148,0.491101 6.725999,1.088762 8.955643,1.737386 -1.979461,-0.832787 -4.568165,-1.711904 -8.01398,-2.625769 z"
         inkscape:connector-curvature="0" />
      <path
         style="fill:#ffffff;fill-opacity:1"
         id="path10"
         d="m 11.297138,47.394112 c -4.6226037,0.807305 -9.4108377,1.635458 -19.0544858,0.49805 -0.1969036,2.194897 -0.3324197,4.223005 -0.4053899,5.727581 9.6888198,-0.06834 14.26046,-1.483727 18.6861597,-2.855104 4.518361,-1.399174 9.189611,-2.845837 19.075335,-2.845837 3.342729,0 5.992821,0.169106 8.136755,0.448245 -1.971353,-0.49805 -4.436124,-0.962511 -7.583109,-1.364426 -9.590367,-1.227753 -14.091354,-0.441296 -18.855265,0.391491 z"
         inkscape:connector-curvature="0" />
      <path
         style="fill:#ffffff;fill-opacity:1"
         id="path12"
         d="m 84.04726,38.891347 c 4.682833,0.191112 9.534772,0.3857 19.14946,-2.125402 -0.47488,-2.672099 -1.04706,-4.74422 -1.71306,-5.539943 -9.356398,3.759702 -14.285941,4.191732 -19.049852,4.604072 -4.818349,0.41813 -9.370299,0.81078 -18.325942,4.458131 -2.940815,1.197638 -5.207524,2.281766 -6.985448,3.267443 2.002626,-0.818888 4.521835,-1.665574 7.759163,-2.522684 9.553304,-2.536583 14.43999,-2.335046 19.165679,-2.141617 z"
         inkscape:connector-curvature="0" />
      <path
         style="fill:#ffffff;fill-opacity:1"
         id="path14"
         d="M 100.76091,28.824935 90.621527,-0.45348543 C 83.28281,2.459531 79.36906,2.797742 75.582718,3.1255287 71.711823,3.460265 68.056364,3.7764692 60.864746,6.7033846 50.890995,10.764234 50.350089,13.300817 50.060525,14.664085 c -0.140149,0.654416 -0.30578,1.386434 -1.202271,1.863636 l 0,33.270932 c 0.0046,-0.0069 0.0139,-0.0139 0.01969,-0.02316 0.0417,-0.06023 0.07876,-0.1332 0.115826,-0.213119 0.07529,-0.183005 0.132041,-0.403074 0.201537,-0.723911 0.45172,-2.120768 1.206904,-5.670826 14.378602,-11.030081 9.154863,-3.729588 14.027651,-4.150035 18.740598,-4.5589 4.623762,-0.399599 9.403889,-0.811938 18.446403,-4.424542 z"
         inkscape:connector-curvature="0" />
      <path
         style="fill:#ffffff;fill-opacity:1"
         id="path16"
         d="m 85.467283,44.861004 c 4.528785,0.792247 9.220879,1.601869 18.695427,0.479518 -0.19922,-2.07328 -0.44362,-4.133819 -0.73318,-6.004404 -9.727038,2.529633 -14.668164,2.336204 -19.441341,2.138142 -4.834565,-0.198062 -9.396939,-0.384541 -18.742915,2.095287 -3.445815,0.915023 -6.033361,1.79414 -8.017455,2.629243 2.230803,-0.648624 5.121813,-1.246284 8.95796,-1.737385 9.805803,-1.256709 14.626469,-0.414656 19.281504,0.399599 z"
         inkscape:connector-curvature="0" />
      <path
         style="fill:#ffffff;fill-opacity:1"
         id="path18"
         d="m 85.996606,50.795912 c 4.424542,1.370218 8.997336,2.786767 18.686154,2.856262 -0.0834,-1.748968 -0.21775,-3.72148 -0.38917,-5.731055 -9.652908,1.140883 -14.446937,0.311571 -19.070699,-0.496893 -4.763911,-0.832787 -9.26374,-1.618085 -18.855266,-0.391491 -3.144668,0.403074 -5.610597,0.868693 -7.580792,1.364427 2.142775,-0.275665 4.791709,-0.448245 8.134439,-0.448245 9.886882,0 14.558132,1.447821 19.075334,2.846995 z"
         inkscape:connector-curvature="0" />
      <path
         style="fill:#ffffff;fill-opacity:1"
         id="path20"
         d="m 47.32588,48.81066 c 0.03822,0.178371 0.07065,0.323154 0.105401,0.456353 l 0,-32.738134 C 46.53479,16.051677 46.36916,15.319659 46.230169,14.665244 45.939446,13.301975 45.399699,10.765392 35.424789,6.7045428 28.233172,3.7776274 24.577713,3.4614233 20.707976,3.126687 16.920476,2.7989003 13.009042,2.459531 5.6726423,-0.45116892 L -4.2455125,28.792504 c 9.0459868,3.61492 13.8272718,4.029576 18.4545085,4.429175 4.711789,0.408865 9.583418,0.83047 18.73944,4.556583 13.171698,5.360413 13.926882,8.911629 14.377444,11.032398 z"
         inkscape:connector-curvature="0" />
    </g>
  </g>
</svg>
