<?xml version="1.0" encoding="UTF-8" standalone="no"?>
<!-- Created with Inkscape (http://www.inkscape.org/) -->
<svg id="svg1936" xmlns:rdf="http://www.w3.org/1999/02/22-rdf-syntax-ns#" xmlns="http://www.w3.org/2000/svg" viewBox="0 0 971.68 195.66" version="1.0" xmlns:cc="http://creativecommons.org/ns#" xmlns:dc="http://purl.org/dc/elements/1.1/">
 <metadata id="metadata21">
  <rdf:RDF>
   <cc:Work rdf:about="">
    <dc:format>image/svg+xml</dc:format>
    <dc:type rdf:resource="http://purl.org/dc/dcmitype/StillImage"/>
    <dc:title/>
   </cc:Work>
  </rdf:RDF>
 </metadata>
 <g id="layer1" transform="translate(151.616,-642.7961)">
  <g id="g1967" fill-rule="evenodd" transform="translate(7.081691,7.081144)">
   <path id="path8" fill="#F90" d="m222.03,784.73c-34.999,25.797-85.729,39.561-129.41,39.561-61.243,0-116.38-22.651-158.09-60.325-3.2771-2.9625-0.34083-6.9999,3.5917-4.6928,45.014,26.191,100.67,41.947,158.17,41.947,38.775,0,81.429-8.0224,120.65-24.67,5.925-2.5168,10.88,3.8801,5.0861,8.1796"/>
   <path id="path10" fill="#F90" d="m236.58,768.09c-4.4569-5.7153-29.573-2.7003-40.846-1.3633-3.4344,0.41947-3.9587-2.5692-0.86517-4.719,20.003-14.078,52.827-10.015,56.655-5.2958,3.8276,4.7453-0.99624,37.647-19.794,53.351-2.8838,2.412-5.6366,1.1273-4.352-2.0711,4.2209-10.539,13.685-34.161,9.2021-39.902"/>
   <path id="path12" fill="#221f1f" d="m196.52,662.62,0-13.685c0-2.0711,1.573-3.4606,3.4606-3.4606h61.269c1.9663,0,3.5393,1.4157,3.5393,3.4606v11.719c-0.0262,1.9663-1.6779,4.5355-4.6142,8.5991l-31.749,45.329c11.798-0.28837,24.251,1.4681,34.947,7.498,2.412,1.3633,3.0674,3.3558,3.2509,5.322v14.603c0,1.9925-2.2022,4.3258-4.5093,3.1198-18.85-9.8838-43.887-10.959-64.729,0.10487-2.1236,1.1535-4.352-1.1535-4.352-3.146v-13.869c0-2.2284,0.0262-6.0299,2.2546-9.4119l36.782-52.748h-32.011c-1.9663,0-3.5393-1.3895-3.5393-3.4344"/>
   <path id="path14" fill="#221f1f" d="m-26.981,748-18.64,0c-1.7827-0.13107-3.1984-1.4681-3.3295-3.1722v-95.665c0-1.9138,1.5992-3.4344,3.5917-3.4344h17.382c1.809,0.0786,3.2509,1.4681,3.382,3.1984v12.505h0.34082c4.5355-12.086,13.056-17.723,24.539-17.723,11.666,0,18.955,5.6366,24.198,17.723,4.5093-12.086,14.76-17.723,25.745-17.723,7.8126,0,16.359,3.2247,21.576,10.461,5.8988,8.0486,4.6928,19.741,4.6928,29.992l-0.02621,60.377c0,1.9138-1.5992,3.4606-3.5917,3.4606h-18.614c-1.8614-0.13107-3.3557-1.6254-3.3557-3.4606v-50.703c0-4.0374,0.36702-14.105-0.52434-17.932-1.3895-6.4231-5.558-8.2321-10.959-8.2321-4.5093,0-9.2283,3.0149-11.142,7.8388-1.9138,4.8239-1.7303,12.899-1.7303,18.326v50.703c0,1.9138-1.5992,3.4606-3.5917,3.4606h-18.614c-1.8876-0.13107-3.3558-1.6254-3.3558-3.4606l-0.02621-50.703c0-10.67,1.7565-26.374-11.483-26.374-13.397,0-12.872,15.311-12.872,26.374v50.703c0,1.9138-1.5992,3.4606-3.5917,3.4606"/>
   <path id="path16" fill="#221f1f" d="m317.53,643.71c27.659,0,42.629,23.752,42.629,53.954,0,29.179-16.543,52.329-42.629,52.329-27.161,0-41.947-23.752-41.947-53.351,0-29.782,14.97-52.932,41.947-52.932m0.15729,19.532c-13.738,0-14.603,18.719-14.603,30.385,0,11.693-0.18352,36.651,14.445,36.651,14.445,0,15.127-20.135,15.127-32.404,0-8.0748-0.34082-17.723-2.779-25.378-2.0974-6.6591-6.2658-9.2545-12.191-9.2545"/>
   <path id="path18" fill="#221f1f" d="m396.03,748-18.562,0c-1.8614-0.13107-3.3558-1.6254-3.3558-3.4606l-0.0262-95.691c0.1573-1.7565,1.7041-3.1198,3.5917-3.1198h17.277c1.6254,0.0786,2.9625,1.1798,3.3295,2.6741v14.629h0.3408c5.2172-13.082,12.532-19.322,25.404-19.322,8.3632,0,16.517,3.0149,21.76,11.273,4.8763,7.6553,4.8763,20.528,4.8763,29.782v60.22c-0.20973,1.6779-1.7565,3.0149-3.5917,3.0149h-18.693c-1.7041-0.13107-3.1198-1.3895-3.3033-3.0149v-51.962c0-10.461,1.206-25.771-11.667-25.771-4.5355,0-8.704,3.0412-10.775,7.6553-2.6217,5.8464-2.9625,11.667-2.9625,18.116v51.516c-0.0262,1.9138-1.6517,3.4606-3.6441,3.4606"/>
   <path id="path20" fill="#221f1f" d="m462.33,740.4c0-4.8239,4.116-8.704,9.1759-8.704,5.0598,0,9.1759,3.8801,9.1759,8.704,0,4.7977-4.116,8.7302-9.1759,8.7302-5.0598,0-9.1759-3.9325-9.1759-8.7302"/>
   <path id="path22" fill="#221f1f" d="m659.82,748.03c-1.94-0.0787-3.4606-1.573-3.4606-3.4606v-95.665c0.10487-1.7041,1.5468-3.0412,3.3295-3.146h6.8426c1.8876,0,3.4082,1.3633,3.5655,3.146v13.947c4.8763-11.064,13.947-19.715,25.404-19.715h0.70785,0.68164c12.165,0,21.052,8.9662,24.355,21.996,5.1647-12.872,14.865-21.996,27.659-21.996h0.65542,0.76029c9.0448,0,17.749,5.8201,22.258,14.681,4.352,8.468,4.1947,19.741,4.1947,29.206l-0.0262,57.546c0.0262,1.8352-1.4681,3.3295-3.3295,3.4606h-8.1797c-1.7828-0.0787-3.2247-1.3371-3.4606-2.9887v-58.018c0-6.8426,0.34082-14.105-2.4382-20.344-2.8314-6.3707-8.2583-10.356-14.078-10.644-6.5018,0.31459-12.479,5.0598-16.359,11.457-5.0336,8.2583-4.8501,15.704-4.8501,25.352v52.25c-0.23595,1.573-1.6254,2.8052-3.3295,2.9363h-8.1272c-1.94-0.0787-3.4868-1.573-3.4868-3.4606l-0.0524-61.374c0-5.6366-0.34082-12.269-2.9363-17.329-3.0149-5.7677-8.4156-9.5429-14.078-9.8313-5.8726,0.34082-11.798,4.8239-15.311,10.041-4.5355,6.6591-5.4007,14.891-5.4007,23.359v55.134c0,1.8352-1.4944,3.3295-3.3558,3.4606h-8.1534"/>
   <path id="path24" fill="#221f1f" d="m603.67,750.02c-26.453,0-38.303-26.977-38.303-53.954,0-28.367,13.921-52.932,40.557-52.932h0.68164,0.73407c25.902,0,38.801,26.164,38.801,53.142,0,28.576-14.288,53.745-41.082,53.745h-0.68164-0.70786m1.94-13.082c8.704-0.2884,15.573-5.6891,19.636-14.681,3.6441-8.0748,4.352-17.329,4.352-26.191,0-9.6478-1.0487-19.715-5.5842-27.973-4.0636-7.2096-11.037-11.798-18.43-12.06-8.2321,0.28837-15.599,5.8726-19.296,14.472-3.3295,7.4456-4.352,17.329-4.352,25.561,0,9.2546,1.206,19.951,5.0336,28,3.7228,7.6291,10.88,12.584,18.64,12.872"/>
   <path id="path26" fill="#221f1f" d="m521,736.52c11.876-0.36705,18.116-9.8838,20.685-22.206,0.52434-1.5468,1.7041-2.7266,3.4344-2.7266l7.8388-0.0262c1.8614,0.0786,3.5655,1.4944,3.4082,3.2247-3.6179,21-16.281,35.235-34.318,35.235h-0.73407-0.68164c-26.269,0-37.595-26.374-37.595-53.142,0-26.558,11.483-53.745,37.752-53.745h0.70785,0.70786c18.247,0,31.25,14.052,34.082,35.052,0,1.573-1.4682,2.9363-3.1985,3.1198l-8.2059-0.10487c-1.7303-0.23595-2.8576-1.7041-3.1198-3.3557-1.9663-11.719-8.704-21.052-19.925-21.419-17.854,0.57677-22.94,22.546-22.94,39.456,0,16.281,4.2471,40.059,22.101,40.636"/>
   <path id="path28" fill="#221f1f" d="m147.68,702.31c0,7.2621,0.18352,13.318-3.4868,19.768-2.9625,5.2434-7.6815,8.468-12.899,8.468-7.1572,0-11.352-5.4531-11.352-13.502,0-15.887,14.236-18.771,27.737-18.771v4.0374m18.797,45.434c-1.2322,1.1011-3.0149,1.1798-4.4044,0.4457-6.1872-5.1385-7.3145-7.5242-10.696-12.427-10.225,10.434-17.487,13.554-30.726,13.554-15.704,0-27.895-9.674-27.895-29.048,0-15.127,8.1797-25.43,19.872-30.464,10.12-4.4569,24.251-5.2434,35.052-6.4756v-2.412c0-4.4307,0.34082-9.674-2.2809-13.502-2.2546-3.4344-6.6067-4.8501-10.461-4.8501-7.1048,0-13.423,3.6441-14.97,11.195-0.3146,1.6779-1.5468,3.3296-3.2509,3.4082l-18.063-1.9401c-1.5206-0.3408-3.2247-1.573-2.779-3.9063,4.1423-21.917,23.962-28.524,41.685-28.524,9.071,0,20.921,2.412,28.078,9.2808,9.071,8.468,8.2059,19.768,8.2059,32.063v29.048c0,8.7302,3.6179,12.558,7.0261,17.277,1.1798,1.6779,1.4419,3.6966-0.0787,4.955-3.8014,3.1722-10.565,9.071-14.288,12.374l-0.0262-0.0525"/>
   <path id="path30" fill="#221f1f" d="m-96.692,702.31c0,7.2621,0.1835,13.318-3.4868,19.768-2.9625,5.2434-7.6553,8.468-12.899,8.468-7.1572,0-11.326-5.4531-11.326-13.502,0-15.887,14.236-18.771,27.711-18.771v4.0374m18.797,45.434c-1.2322,1.1011-3.015,1.1798-4.4044,0.4457-6.1872-5.1385-7.2883-7.5242-10.696-12.427-10.225,10.434-17.46,13.554-30.726,13.554-15.678,0-27.895-9.674-27.895-29.048,0-15.127,8.2059-25.43,19.872-30.464,10.12-4.4569,24.251-5.2434,35.052-6.4756v-2.412c0-4.4307,0.34082-9.674-2.2546-13.502-2.2809-3.4344-6.6329-4.8501-10.461-4.8501-7.1048,0-13.449,3.6441-14.996,11.195-0.31461,1.6779-1.5468,3.3296-3.2247,3.4082l-18.09-1.9401c-1.5206-0.3408-3.1985-1.573-2.779-3.9063,4.1685-21.917,23.962-28.524,41.685-28.524,9.071,0,20.921,2.412,28.078,9.2808,9.071,8.468,8.2059,19.768,8.2059,32.063v29.048c0,8.7302,3.6179,12.558,7.0261,17.277,1.206,1.6779,1.4681,3.6966-0.05244,4.955-3.8014,3.1722-10.565,9.071-14.288,12.374l-0.05242-0.0525"/>
   <path id="path32" fill="#221f1f" d="m796.12,646.78c4.4831,0,8.2059,3.6179,8.2059,8.1797,0,4.4568-3.6704,8.2059-8.2059,8.2059-4.5093,0-8.1796-3.6704-8.1796-8.2059,0-4.6142,3.7228-8.1797,8.1796-8.1797m0.0262-1.573c-5.2434,0-9.7789,4.2471-9.7789,9.7789,0,5.4269,4.4569,9.7527,9.7789,9.7527,5.3482,0,9.7527-4.3782,9.7527-9.7527,0-5.5318-4.4831-9.7789-9.7527-9.7789m-3.6704,15.258,2.0974,0,0-4.4044,1.94,0c0.76028,0,0.97002,0.31462,1.1273,0.94381,0,0.1573,0.36704,2.9363,0.39325,3.4606h2.3333c-0.28838-0.52432-0.44569-2.0187-0.55055-2.9101-0.20974-1.3895-0.31461-2.3595-1.809-2.4644,0.76028-0.26217,2.0711-0.68164,2.0711-2.7003,0-2.8839-2.543-2.8839-3.8539-2.8839h-3.749v10.959m2.0449-9.2021,1.7565,0c0.57677,0,1.6254,0,1.6254,1.4944,0,0.57677-0.26217,1.5468-1.6779,1.5468h-1.7041v-3.0412"/>
  </g>
 </g>
</svg>
