<?xml version="1.0" encoding="UTF-8" standalone="no"?>
<!-- Created with Inkscape (http://www.inkscape.org/) -->

<svg
   xmlns:dc="http://purl.org/dc/elements/1.1/"
   xmlns:cc="http://creativecommons.org/ns#"
   xmlns:rdf="http://www.w3.org/1999/02/22-rdf-syntax-ns#"
   xmlns:svg="http://www.w3.org/2000/svg"
   xmlns="http://www.w3.org/2000/svg"
   version="1.1"
   width="14"
   height="14"
   viewBox="0 0 71.68 71.68"
   id="Layer_1"
   xml:space="preserve"><metadata
     id="metadata9"><rdf:RDF><cc:Work
         rdf:about=""><dc:format>image/svg+xml</dc:format><dc:type
           rdf:resource="http://purl.org/dc/dcmitype/StillImage" /><dc:title></dc:title></cc:Work></rdf:RDF></metadata><defs
     id="defs7" /><path
     d="M 67.38379,35.922397 V 71.562976 H 31.743212 c -4.920628,0 -8.910145,-3.989517 -8.910145,-8.910145 V 31.467324 c 0,-4.920626 3.989517,-8.910144 8.910145,-8.910144 h 31.185506 v 4.455073 4.455071 H 58.473645 V 27.012253 H 31.743212 c -2.460314,0 -4.455072,1.992671 -4.455072,4.455071 0,2.462403 1.994758,4.455073 4.455072,4.455073 H 67.38379 z M 18.377995,31.467324 c 0,-7.370081 5.995274,-13.365216 13.365217,-13.365216 H 49.563501 V 13.647035 H 13.922922 c -2.460313,0 -4.455071,-1.992669 -4.455071,-4.4550714 0,-2.4624021 1.994758,-4.4550729 4.455071,-4.4550729 h 26.730434 v 4.4550729 h 4.455073 V 4.7368907 0.28181895 H 13.922922 c -4.920627,0 -8.9101443,3.98951705 -8.9101443,8.91014465 V 40.377469 c 0,4.920628 3.9895173,8.910145 8.9101443,8.910145 h 4.455073 v -17.82029 z"
     id="path3"
     style="fill:#ffffff;fill-opacity:1" /></svg>