<?xml version="1.0" encoding="UTF-8" standalone="no"?>
<svg id="svg2" xmlns:sketch="http://www.bohemiancoding.com/sketch/ns" xmlns:rdf="http://www.w3.org/1999/02/22-rdf-syntax-ns#" xmlns="http://www.w3.org/2000/svg" height="20" width="35" version="1.1" xmlns:cc="http://creativecommons.org/ns#" viewBox="0.95 -2.3 35 27" xmlns:dc="http://purl.org/dc/elements/1.1/">
 <metadata id="metadata18">
  <rdf:RDF>
   <cc:Work rdf:about="">
    <dc:format>image/svg+xml</dc:format>
    <dc:type rdf:resource="http://purl.org/dc/dcmitype/StillImage"/>
    <dc:title>library_books</dc:title>
   </cc:Work>
  </rdf:RDF>
 </metadata>
 <title id="title4">library_books</title>
 <description id="description6">Created with Sketch (http://www.bohemiancoding.com/sketch)</description>
 <g id="iOS7-active" opacity="0.5" fill-rule="evenodd" transform="matrix(1.1662214,0,0,1.1662214,-0.0955773,-2.1862421)" sketch:type="MSPage" fill="#3d8b99">
  <path id="library_books" d="M0,17.907,4,23,4,5.093,0,0,0,17.907zm5-12.907,4,0,0,18-4,0,0-18zm5,0,4,0,0,18-4,0,0-18zm5,0,4,0,0,18-4,0,0-18zm-10.526-0.4159h0.5l-3-4v0.75952l2.5,3.2405zm1.3675,0.00903,0.5,0-3-4,0,0.75952,2.5,3.2405zm2.8629-0.00732-3.8308-4.4767,0,1.13,2.5396,3.3467,1.2912,0zm0.76959-0.00171,0.5,0-3-4,0,0.75952,2.5,3.2405zm1.3675,0.00903,0.5,0-3-4,0,0.75952,2.5,3.2405zm2.8629-0.00732-3.8308-4.4767,0,1.13,2.5396,3.3467,1.2912,0zm0.76959-0.00171,0.5,0-3-4,0,0.75952,2.5,3.2405zm1.3675,0.00903,0.5,0-3-4,0,0.75952,2.5,3.2405zm2.8629-0.00732-3.8308-4.4767,0,1.13,2.5396,3.3467,1.2912,0z" sketch:type="MSShapeGroup" fill="#3d8b99"/>
 </g>
</svg>
