<?xml version="1.0" encoding="UTF-8" standalone="no"?>
<!-- Generator: Adobe Illustrator 15.1.0, SVG Export Plug-In . SVG Version: 6.00 Build 0)  -->

<svg
   xmlns:dc="http://purl.org/dc/elements/1.1/"
   xmlns:cc="http://creativecommons.org/ns#"
   xmlns:rdf="http://www.w3.org/1999/02/22-rdf-syntax-ns#"
   xmlns:svg="http://www.w3.org/2000/svg"
   xmlns="http://www.w3.org/2000/svg"
   xmlns:sodipodi="http://sodipodi.sourceforge.net/DTD/sodipodi-0.dtd"
   xmlns:inkscape="http://www.inkscape.org/namespaces/inkscape"
   version="1.1"
   id="Layer_1"
   x="0px"
   y="0px"
   width="100px"
   height="98.911px"
   viewBox="0 0 100 98.911"
   enable-background="new 0 0 100 98.911"
   xml:space="preserve"
   inkscape:version="0.48.3.1 r9886"
   sodipodi:docname="magglass.svg"><metadata
   id="metadata11"><rdf:RDF><cc:Work
       rdf:about=""><dc:format>image/svg+xml</dc:format><dc:type
         rdf:resource="http://purl.org/dc/dcmitype/StillImage" /></cc:Work></rdf:RDF></metadata><defs
   id="defs9" /><sodipodi:namedview
   pagecolor="#ffffff"
   bordercolor="#666666"
   borderopacity="1"
   objecttolerance="10"
   gridtolerance="10"
   guidetolerance="10"
   inkscape:pageopacity="0"
   inkscape:pageshadow="2"
   inkscape:window-width="640"
   inkscape:window-height="480"
   id="namedview7"
   showgrid="false"
   inkscape:zoom="2.3859833"
   inkscape:cx="50"
   inkscape:cy="49.455502"
   inkscape:window-x="1354"
   inkscape:window-y="181"
   inkscape:window-maximized="0"
   inkscape:current-layer="Layer_1" />
<path
   fill="#010101"
   d="M20.202,69.47L0,89.673l9.238,9.237l19.98-19.979C25.814,76.201,22.776,73.02,20.202,69.47z"
   id="path3"
   style="fill:#ffffff" />
<path
   fill="#010101"
   d="M58.627,0C36.125,0,18.344,17.781,18.344,40.283s17.781,41.372,40.283,41.372  c22.5,0,41.373-18.87,41.373-41.372S81.129,0,58.627,0z M58.627,75.122c-18.901,0-33.75-15.938-33.75-34.839  c0-18.9,14.849-33.751,33.75-33.751c18.902,0,34.84,14.851,34.84,33.751C93.467,59.184,77.53,75.122,58.627,75.122z"
   id="path5"
   style="fill:#ffffff" />
</svg>