<?xml version="1.0" encoding="UTF-8" standalone="no"?>
<svg
   xmlns:dc="http://purl.org/dc/elements/1.1/"
   xmlns:cc="http://creativecommons.org/ns#"
   xmlns:rdf="http://www.w3.org/1999/02/22-rdf-syntax-ns#"
   xmlns:svg="http://www.w3.org/2000/svg"
   xmlns="http://www.w3.org/2000/svg"
   xmlns:sodipodi="http://sodipodi.sourceforge.net/DTD/sodipodi-0.dtd"
   xmlns:inkscape="http://www.inkscape.org/namespaces/inkscape"
   version="1.1"
   id="Your_Icon"
   x="0px"
   y="0px"
   width="100px"
   height="100px"
   viewBox="0 0 100 100"
   enable-background="new 0 0 100 100"
   xml:space="preserve"
   inkscape:version="0.48.3.1 r9886"
   sodipodi:docname="user.svg"><metadata
   id="metadata9"><rdf:RDF><cc:Work
       rdf:about=""><dc:format>image/svg+xml</dc:format><dc:type
         rdf:resource="http://purl.org/dc/dcmitype/StillImage" /></cc:Work></rdf:RDF></metadata><defs
   id="defs7" /><sodipodi:namedview
   pagecolor="#ffffff"
   bordercolor="#666666"
   borderopacity="1"
   objecttolerance="10"
   gridtolerance="10"
   guidetolerance="10"
   inkscape:pageopacity="0"
   inkscape:pageshadow="2"
   inkscape:window-width="640"
   inkscape:window-height="480"
   id="namedview5"
   showgrid="false"
   inkscape:zoom="2.36"
   inkscape:cx="50"
   inkscape:cy="50"
   inkscape:window-x="0"
   inkscape:window-y="31"
   inkscape:window-maximized="0"
   inkscape:current-layer="Your_Icon" />
<path
   d="M98.071,88.001c-2.847-6.402-16.743-10.638-25.976-14.615c-9.233-3.977-7.971-6.389-8.303-9.687  c-0.088-0.879-0.119-1.864-0.116-2.837c2.739-2.638,4.988-6.056,6.495-9.945c0,0,0.088-0.22,0.113-0.287  c0.353-0.94,0.668-1.92,0.938-2.919c2.116-0.418,3.349-2.664,3.821-4.742c0.475-0.841,1.465-2.914,1.238-5.266  c-0.204-2.114-0.877-3.433-1.742-4.237c3.47-4.278,5.784-14.045-4.331-19.001c0,0-1.956-14.089-24.418-12.512  c-16.382,2.093-18.101,14.036-18.523,14.3c-5.556,3.475-5.941,14.722-2.761,18.166c-0.481,0.789-0.835,1.853-0.973,3.284  c-0.227,2.352,0.762,4.425,1.238,5.266c0.479,2.114,1.747,4.403,3.931,4.763c0.272,1.004,0.59,1.99,0.948,2.938  c0.023,0.061,0.048,0.122,0.073,0.183l0.032,0.082c1.576,4.058,3.959,7.605,6.865,10.284c-0.005,0.856-0.038,1.71-0.115,2.481  c-0.332,3.298,0.639,5.709-8.594,9.687c-9.233,3.977-23.129,8.214-25.976,14.615c-2.847,6.401-1.709,10.168-1.709,10.168h99.547  C99.771,98.169,100.919,94.402,98.071,88.001z"
   id="path3"
   style="fill:#ffffff" />
</svg>