<?xml version="1.0" encoding="UTF-8" standalone="no"?>
<!-- Created with Inkscape (http://www.inkscape.org/) -->

<svg
   xmlns:dc="http://purl.org/dc/elements/1.1/"
   xmlns:cc="http://creativecommons.org/ns#"
   xmlns:rdf="http://www.w3.org/1999/02/22-rdf-syntax-ns#"
   xmlns:svg="http://www.w3.org/2000/svg"
   xmlns="http://www.w3.org/2000/svg"
   xmlns:sodipodi="http://sodipodi.sourceforge.net/DTD/sodipodi-0.dtd"
   xmlns:inkscape="http://www.inkscape.org/namespaces/inkscape"
   version="1.1"
   width="100"
   height="100"
   id="svg2"
   inkscape:version="0.48.4 r9939"
   sodipodi:docname="zoom-overlay.svg">
  <sodipodi:namedview
     pagecolor="#ffffff"
     bordercolor="#666666"
     borderopacity="1"
     objecttolerance="10"
     gridtolerance="10"
     guidetolerance="10"
     inkscape:pageopacity="0"
     inkscape:pageshadow="2"
     inkscape:window-width="1447"
     inkscape:window-height="1447"
     id="namedview19"
     showgrid="false"
     inkscape:zoom="11.313709"
     inkscape:cx="66.516007"
     inkscape:cy="28.405977"
     inkscape:window-x="666"
     inkscape:window-y="24"
     inkscape:window-maximized="0"
     inkscape:current-layer="svg2" />
  <defs
     id="defs4">
    <filter
       color-interpolation-filters="sRGB"
       id="filter3916">
      <feGaussianBlur
         id="feGaussianBlur3918"
         stdDeviation="5"
         result="result91" />
      <feComposite
         in2="result91"
         operator="over"
         in="SourceGraphic"
         id="feComposite3920" />
    </filter>
  </defs>
  <metadata
     id="metadata7">
    <rdf:RDF>
      <cc:Work
         rdf:about="">
        <dc:format>image/svg+xml</dc:format>
        <dc:type
           rdf:resource="http://purl.org/dc/dcmitype/StillImage" />
        <dc:title></dc:title>
      </cc:Work>
    </rdf:RDF>
  </metadata>
  <g
     id="g3941"
     transform="translate(-86.344865,-182.8293)">
    <path
       inkscape:connector-curvature="0"
       style="fill:#ffffff;fill-opacity:0.48660714999999999;fill-rule:nonzero;stroke:none;"
       id="path2996"
       transform="translate(86.787437,182.46031)"
       d="m 49.71875,0.53125 c -27.724057,0 -50.1875,22.494693 -50.1875,50.21875 0,27.724057 22.463443,50.1875 50.1875,50.1875 27.724057,0 50.21875,-22.463443 50.21875,-50.1875 0,-27.724057 -22.494693,-50.21875 -50.21875,-50.21875 z m 0,15.96875 c 18.914544,0 34.25,15.335456 34.25,34.25 0,18.914544 -15.335456,34.25 -34.25,34.25 -18.914544,0 -34.25,-15.335456 -34.25,-34.25 0,-18.914544 15.335456,-34.25 34.25,-34.25 z" />
    <path
       inkscape:connector-curvature="0"
       style="fill:#000000;fill-opacity:0.12941175999999999;fill-rule:nonzero;stroke:none;"
       id="path2996-1-6"
       transform="matrix(0.92405066,0,0,0.92405066,109.64378,209.71876)"
       d="m 66.149879,25.405457 a 37.062698,37.062698 0 1 1 -74.1253963,0 37.062698,37.062698 0 1 1 74.1253963,0 z" />
    <g
       style="fill:#ffffff;fill-opacity:1;"
       id="g3837"
       transform="matrix(0.41972196,0,0,0.41972196,189.90803,228.66641)">
      <g
         style="fill:#ffffff;fill-opacity:1;"
         id="g3807">
        <polygon
           style="fill:#ffffff;fill-opacity:1;"
           id="polygon3809"
           points="-140.674,5.758 -132.48,5.758 -132.48,13.804 -127.314,13.804 -127.314,5.758 -119.416,5.758 -119.416,0.592 -127.314,0.592 -127.314,-7.454 -132.48,-7.454 -132.48,0.592 -140.674,0.592 " />
        <path
           inkscape:connector-curvature="0"
           style="fill:#ffffff;fill-opacity:1;"
           id="path3811"
           d="m -94.425,31.605 -17.193,-17.193 c -0.036,-0.036 -0.078,-0.06 -0.115,-0.094 1.996,-3.246 3.167,-7.054 3.167,-11.144 0,-11.782 -9.551,-21.333 -21.332,-21.333 -11.781,0 -21.332,9.552 -21.332,21.334 0,11.781 9.551,21.332 21.333,21.332 3.942,0 7.621,-1.087 10.789,-2.952 0.053,0.063 0.097,0.133 0.157,0.191 l 17.193,17.194 c 1.062,1.062 2.785,1.062 3.847,0 l 3.487,-3.488 c 1.061,-1.061 1.061,-2.784 -10e-4,-3.847 z M -145.99,3.323 c 0,-8.928 7.238,-16.166 16.166,-16.166 8.928,0 16.166,7.237 16.166,16.166 0,8.929 -7.238,16.165 -16.166,16.165 -8.928,0 -16.166,-7.237 -16.166,-16.165 z" />
      </g>
      <g
         style="fill:#ffffff;fill-opacity:1;"
         id="g3813" />
      <g
         style="fill:#ffffff;fill-opacity:1;"
         id="g3819" />
      <g
         style="fill:#ffffff;fill-opacity:1;"
         id="g3825" />
    </g>
  </g>
</svg>
